<svg xmlns="http://www.w3.org/2000/svg" viewBox="0 0 440 440"><title>gearicon1000</title><path d="M440,193v54c-2.12,6.83-7,10.43-13.65,12.57-10.3,3.3-20.38,7.25-30.63,10.71-3.33,1.13-5,3.1-6.24,6.38-2.87,7.8-6,15.53-9.51,23a9.71,9.71,0,0,0,.11,9.36c4.93,10,9.7,20.08,14.43,30.18,4.08,8.71,3.09,14.45-3.66,21.26q-14.76,14.9-29.65,29.67c-7.68,7.64-13.12,8.56-22.89,3.93-9.92-4.71-19.86-9.38-29.73-14.21a8.92,8.92,0,0,0-8.44-.11c-7.86,3.59-16,6.49-23.88,10.1a11.54,11.54,0,0,0-5.61,5.47c-4,10.21-7.75,20.56-11.1,31-2.14,6.68-5.8,11.46-12.57,13.63H193c-6.76-2.17-10.43-6.95-12.57-13.63-3.34-10.46-7.08-20.8-11.1-31a11.54,11.54,0,0,0-5.61-5.47c-7.85-3.61-16-6.51-23.88-10.1a8.92,8.92,0,0,0-8.44.11q-15.25,7.45-30.64,14.62c-8.72,4.08-14.46,3.1-21.27-3.64q-14.73-14.58-29.32-29.29c-8.1-8.13-9-13.42-4.09-23.7,4.59-9.61,9.09-19.27,13.81-28.81a9.7,9.7,0,0,0,.11-9.36c-3.53-7.52-6.65-15.24-9.51-23-1.21-3.28-2.91-5.26-6.24-6.38-10.24-3.47-20.33-7.42-30.63-10.71C7,257.43,2.12,253.83,0,247V193c2.12-6.83,7-10.43,13.65-12.57,10.3-3.3,20.38-7.25,30.63-10.71,3.33-1.13,5-3.1,6.24-6.38,2.87-7.8,6-15.52,9.51-23a9.71,9.71,0,0,0-.11-9.36c-4.93-10-9.7-20.08-14.43-30.18C41.41,92,42.39,86.31,49.14,79.5Q63.9,64.6,78.79,49.83c7.68-7.64,13.12-8.56,22.89-3.93,9.92,4.71,19.86,9.38,29.73,14.21a8.92,8.92,0,0,0,8.44.11c7.86-3.59,16-6.49,23.88-10.1a11.54,11.54,0,0,0,5.61-5.47c4-10.21,7.75-20.56,11.1-31C182.57,6.95,186.24,2.17,193,0h54c6.76,2.17,10.43,6.95,12.57,13.63,3.34,10.46,7.08,20.8,11.1,31a11.54,11.54,0,0,0,5.61,5.47c7.85,3.61,16,6.51,23.88,10.1a8.92,8.92,0,0,0,8.44-.11q15.25-7.45,30.64-14.62c8.72-4.08,14.46-3.1,21.27,3.64q14.73,14.58,29.32,29.29c8.1,8.13,9,13.42,4.09,23.7-4.59,9.61-9.09,19.27-13.81,28.81a9.7,9.7,0,0,0-.11,9.36c3.53,7.52,6.65,15.24,9.51,23,1.21,3.28,2.91,5.26,6.24,6.38,10.24,3.47,20.33,7.42,30.63,10.71C433,182.57,437.88,186.17,440,193ZM382.92,92.1a38,38,0,0,0-2.72-3.42c-9.52-9.57-19.15-19-28.56-28.7-2.56-2.63-4.76-2.77-7.89-1.23-11.52,5.64-23.2,11-34.69,16.65-3.61,1.79-6.48,1.68-10.24,0-10.72-4.93-21.66-9.41-32.7-13.58-3.5-1.32-5.46-3.08-6.65-6.55-4.15-12.14-8.63-24.16-12.79-36.29-1.19-3.48-3-5-6.84-5-13.16.19-26.33.22-39.49,0-4.13-.08-5.9,1.64-7.14,5.28C189,31.5,184.71,43.77,180,55.89a11.24,11.24,0,0,1-5.6,5.42c-11.25,5-22.74,9.41-34,14.39-3,1.34-5.42,1.67-8.43.2-11.82-5.78-23.8-11.26-35.59-17.08-3.38-1.67-5.64-1.36-8.29,1.38Q74.39,74.36,60.21,88.11c-2.72,2.64-3.1,4.89-1.42,8.29C64.62,108.2,70.1,120.17,75.88,132c1.46,3,1.21,5.37-.15,8.41Q68.3,157,61.71,174c-1.27,3.27-2.82,5.25-6.16,6.39-12.45,4.28-24.78,8.87-37.22,13.17-3.2,1.1-4.4,2.89-4.37,6.23.13,13.33.16,26.66,0,40-.05,3.82,1.41,5.67,4.93,6.88,12.29,4.21,24.47,8.77,36.76,13,3.37,1.15,4.85,3.2,6.1,6.45,4.31,11.17,8.86,22.25,13.82,33.14,1.56,3.42,1.72,6,.09,9.32C70,319.89,64.87,331.46,59.15,342.75c-2.11,4.17-1.51,6.76,1.81,9.92q13.75,13.1,26.86,26.86c3,3.13,5.49,3.23,9.14,1.42,11.19-5.56,22.6-10.68,33.77-16.26,3.79-1.89,6.75-1.77,10.68.07,10.54,4.91,21.33,9.33,32.24,13.39,3.71,1.38,5.74,3.25,7,6.87,4,11.82,8.44,23.52,12.43,35.36,1.36,4.06,3.38,5.81,7.87,5.71,12.66-.28,25.33-.26,38,0,4.36.09,6.6-1.33,8-5.52,4.07-12.16,8.6-24.17,12.78-36.3,1.08-3.13,2.9-4.68,6-5.88q17-6.56,33.62-14c3.2-1.44,5.69-1.78,8.86-.22,11.66,5.73,23.5,11.11,35.14,16.88,3.53,1.75,5.89,1.51,8.71-1.42q13.52-14,27.57-27.57c2.88-2.78,3.31-5.1,1.52-8.7-5.79-11.63-11.17-23.46-16.89-35.13-1.54-3.14-1.31-5.64.14-8.87,5-11.07,9.61-22.3,14-33.61,1.2-3.09,2.67-5,5.83-6.08,12.44-4.29,24.78-8.88,37.22-13.16,3.38-1.16,4.67-3,4.63-6.57-.15-13.16-.2-26.33,0-39.49.07-4-1.42-6-5.15-7.24-12.3-4.19-24.47-8.74-36.76-13-3.17-1.09-4.61-3-5.81-6.1-4.39-11.31-9-22.54-14-33.61-1.46-3.24-1.64-5.74-.11-8.87,5.64-11.52,11.09-23.13,16.59-34.72C381.55,95.5,382.14,93.95,382.92,92.1Z"/><path d="M302.14,219.89a82.14,82.14,0,1,1-82-82A81.87,81.87,0,0,1,302.14,219.89Zm-82.23,68.24c37.9,0,67.6-30,68.37-67.66.77-37.16-32-68.73-67.94-68.88-36.91-.15-69.17,32-68.6,68.2C152.33,257.92,181.91,288.13,219.91,288.12Z"/></svg>